<?xml version="1.0" encoding="UTF-8"?>
<svg width="246px" height="148px" viewBox="0 0 246 148" version="1.1" xmlns="http://www.w3.org/2000/svg" xmlns:xlink="http://www.w3.org/1999/xlink">
    <!-- Generator: sketchtool 50.2 (55047) - http://www.bohemiancoding.com/sketch -->
    <title>6D899903-EE1D-462B-A232-BEB3FA551CEE@svg</title>
    <desc>Created with sketchtool.</desc>
    <defs>
        <rect id="path-1" x="0" y="0" width="50.1259259" height="50.8811189"></rect>
        <rect id="path-3" x="0" y="0" width="68.8986784" height="69.8680203"></rect>
    </defs>
    <g id="Design" stroke="none" stroke-width="1" fill="none" fill-rule="evenodd">
        <g id="Homepage" transform="translate(-1614.000000, -3092.000000)">
            <g id="CTA-+-Footer" transform="translate(0.000000, 2786.000000)">
                <g id="bags" transform="translate(1614.000000, 306.000000)">
                    <g id="bag3-copy" transform="translate(0.000000, 41.000000)">
                        <polygon id="Path-91" fill="#E3C14F" points="5.78183335e-15 0 101 0 101 107 0 107"></polygon>
                        <polygon id="Path-91" fill="#FDD659" points="3.1154593e-15 0 78.5555556 0 78.5555556 107 0 107"></polygon>
                        <g id="Combined-Shape" transform="translate(12.718519, 12.720280)">
                            <mask id="mask-2" fill="white">
                                <use xlink:href="#path-1"></use>
                            </mask>
                            <g id="Mask"></g>
                            <path d="M26.152657,-21.8843522 C36.6845315,-21.8843522 45.2223027,-13.346581 45.2223027,-2.81470647 L45.2223027,28.5288203 C45.2223027,39.0606948 36.6845315,47.5984661 26.152657,47.5984661 C15.6207825,47.5984661 7.08301127,39.0606948 7.08301127,28.5288203 L7.08301127,-2.81470647 C7.08301127,-13.346581 15.6207825,-21.8843522 26.152657,-21.8843522 Z M26.152657,-18.0545906 C17.7271574,-18.0545906 10.8969404,-11.2243736 10.8969404,-2.79887398 L10.8969404,27.965879 C10.8969404,36.3913786 17.7271574,43.2215956 26.152657,43.2215956 C34.5781566,43.2215956 41.4083736,36.3913786 41.4083736,27.965879 L41.4083736,-2.79887398 C41.4083736,-11.2243736 34.5781566,-18.0545906 26.152657,-18.0545906 Z" fill="#FFFFFF" mask="url(#mask-2)"></path>
                        </g>
                    </g>
                    <g id="bag2-copy" transform="translate(87.000000, 0.000000)">
                        <polygon id="Path-91" fill="#D99029" points="14.0433687 0.396458008 143.813908 0.396458008 169.302622 147.567574 0.144357534 147.567574"></polygon>
                        <polygon id="Path-91" fill="#F1A02D" points="14.0433687 0.396458008 121.827414 0.396458008 131.384456 147.567574 0.144357534 147.567574"></polygon>
                        <g id="Combined-Shape" transform="translate(31.453744, 17.279188)">
                            <mask id="mask-4" fill="white">
                                <use xlink:href="#path-3"></use>
                            </mask>
                            <g id="Mask"></g>
                            <path d="M35.9471366,-30.0507614 C50.4233227,-30.0507614 62.1585903,-18.3154939 62.1585903,-3.83930768 L62.1585903,39.1489523 C62.1585903,53.6251385 50.4233227,65.3604061 35.9471366,65.3604061 C21.4709504,65.3604061 9.73568282,53.6251385 9.73568282,39.1489523 L9.73568282,-3.83930768 C9.73568282,-18.3154939 21.4709504,-30.0507614 35.9471366,-30.0507614 Z M35.9471366,-24.7918782 C24.3661876,-24.7918782 14.9779736,-15.4036641 14.9779736,-3.82271518 L14.9779736,38.3810908 C14.9779736,49.9620398 24.3661876,59.3502538 35.9471366,59.3502538 C47.5280855,59.3502538 56.9162996,49.9620398 56.9162996,38.3810908 L56.9162996,-3.82271518 C56.9162996,-15.4036641 47.5280855,-24.7918782 35.9471366,-24.7918782 Z" fill="#FFFFFF" mask="url(#mask-4)"></path>
                        </g>
                    </g>
                </g>
            </g>
        </g>
    </g>
</svg>