<?xml version="1.0" encoding="UTF-8"?>
<svg width="24px" height="12px" viewBox="0 0 24 12" version="1.1" xmlns="http://www.w3.org/2000/svg" xmlns:xlink="http://www.w3.org/1999/xlink">
    <!-- Generator: sketchtool 50.2 (55047) - http://www.bohemiancoding.com/sketch -->
    <title>C099A7D7-611D-4F36-BB93-57AC718C02A0@svg</title>
    <desc>Created with sketchtool.</desc>
    <defs></defs>
    <g id="Design" stroke="none" stroke-width="1" fill="none" fill-rule="evenodd">
        <g id="Mobile" transform="translate(-321.000000, -36.000000)" fill="#272E31" fill-rule="nonzero">
            <g id="Top" transform="translate(-13.000000, 24.000000)">
                <g id="burger" transform="translate(334.000000, 12.000000)">
                    <path d="M2,4 L22,4 C23.1045695,4 24,3.1045695 24,2 C24,0.8954305 23.1045695,0 22,0 L2,0 C0.8954305,0 0,0.8954305 0,2 C0,3.1045695 0.8954305,4 2,4 Z M22,8 L2,8 C0.8954305,8 0,8.8954305 0,10 C0,11.1045695 0.8954305,12 2,12 L22,12 C23.1045695,12 24,11.1045695 24,10 C24,8.8954305 23.1045695,8 22,8 Z" id="Shape"></path>
                </g>
            </g>
        </g>
    </g>
</svg>