<?xml version="1.0" encoding="UTF-8"?>
<svg width="27px" height="23px" viewBox="0 0 27 23" version="1.1" xmlns="http://www.w3.org/2000/svg" xmlns:xlink="http://www.w3.org/1999/xlink">
    <!-- Generator: sketchtool 50.2 (55047) - http://www.bohemiancoding.com/sketch -->
    <title>5E4CE908-9D91-49A8-A6D0-EA02C351963A@svg</title>
    <desc>Created with sketchtool.</desc>
    <defs></defs>
    <g id="Design" stroke="none" stroke-width="1" fill="none" fill-rule="evenodd">
        <g id="Homepage" transform="translate(-762.000000, -2395.000000)" fill="#46B4E8" fill-rule="nonzero">
            <g id="How-It-Works" transform="translate(0.000000, 1600.000000)">
                <g id="4" transform="translate(758.000000, 691.000000)">
                    <g id="like" transform="translate(4.000000, 104.000000)">
                        <path d="M10.2493898,9.64334452 L13.2243798,4.78106226 C13.3987936,4.49414677 13.4909319,4.16478129 13.4907122,3.82900699 L13.4907122,1.14285105 C13.4888145,0.550657139 13.9431125,0.0568246394 14.5333753,0.00945192402 C16.1540366,-0.0982209933 18.9363605,0.615820458 17.6500315,7.31420931 L24.1666762,7.31420931 C24.9181204,7.31420931 25.6387874,7.61273769 26.1701387,8.14412161 C26.70149,8.67550553 27,9.39621679 27,10.1477071 C27,13.1625488 26.4333352,18.0078301 23.4866785,21.8047172 C22.9533327,22.481121 22.1539197,22.8942797 21.2936859,22.9381163 C19.0950266,23.0571232 14.4937088,23.1194602 11.17872,21.997395 C10.4713431,21.7694981 9.99398385,21.1084986 10.0000573,20.3653003 L10.0000573,10.5330628 C9.99944068,10.2191576 10.0857391,9.91121026 10.2493898,9.64334452 Z" id="Shape"></path>
                        <path d="M6.28571429,10 L1.71428571,10 C0.767511857,10 1.15946357e-16,10.7591693 0,11.6956522 L0,21.3043478 C1.15946357e-16,22.2408307 0.767511857,23 1.71428571,23 L6.28571429,23 C7.23248814,23 8,22.2408307 8,21.3043478 L8,11.6956522 C8,10.7591693 7.23248814,10 6.28571429,10 Z M4,20.173913 C3.36881743,20.173913 2.85714286,19.6678002 2.85714286,19.0434783 C2.85714286,18.4191564 3.36881743,17.9130435 4,17.9130435 C4.63118257,17.9130435 5.14285714,18.4191564 5.14285714,19.0434783 C5.14285714,19.6678002 4.63118257,20.173913 4,20.173913 Z" id="Shape"></path>
                    </g>
                </g>
            </g>
        </g>
    </g>
</svg>