<?xml version="1.0" encoding="UTF-8"?>
<svg width="24px" height="24px" viewBox="0 0 24 24" version="1.1" xmlns="http://www.w3.org/2000/svg" xmlns:xlink="http://www.w3.org/1999/xlink">
    <!-- Generator: sketchtool 50.2 (55047) - http://www.bohemiancoding.com/sketch -->
    <title>B912D889-C2AA-40A3-B0CD-365C2004D317@svg</title>
    <desc>Created with sketchtool.</desc>
    <defs></defs>
    <g id="Design" stroke="none" stroke-width="1" fill="none" fill-rule="evenodd">
        <g id="Homepage" transform="translate(-761.000000, -1934.000000)" fill="#46B4E8" fill-rule="nonzero">
            <g id="How-It-Works" transform="translate(0.000000, 1600.000000)">
                <g id="1" transform="translate(756.000000, 232.000000)">
                    <g id="polls" transform="translate(5.000000, 102.000000)">
                        <path d="M2.85714286,0 L9.14285714,0 C10.089631,5.79731787e-17 10.8571429,0.767511857 10.8571429,1.71428571 L10.8571429,9.14285714 C10.8571429,10.089631 10.089631,10.8571429 9.14285714,10.8571429 L1.71428571,10.8571429 C0.767511857,10.8571429 1.15946357e-16,10.089631 0,9.14285714 L0,2.85714286 C-1.93243929e-16,1.27918643 1.27918643,2.89865893e-16 2.85714286,0 Z" id="Shape"></path>
                        <path d="M14.8571429,0 L21.1428571,0 C22.7208136,9.66219644e-17 24,1.27918643 24,2.85714286 L24,9.14285714 C24,10.089631 23.2324881,10.8571429 22.2857143,10.8571429 L14.8571429,10.8571429 C13.910369,10.8571429 13.1428571,10.089631 13.1428571,9.14285714 L13.1428571,1.71428571 C13.1428571,0.767511857 13.910369,1.73919536e-16 14.8571429,0 Z" id="Shape"></path>
                        <path d="M1.71428571,13.1428571 L9.14285714,13.1428571 C10.089631,13.1428571 10.8571429,13.910369 10.8571429,14.8571429 L10.8571429,22.2857143 C10.8571429,23.2324881 10.089631,24 9.14285714,24 L2.85714286,24 C1.27918643,24 1.93243929e-16,22.7208136 0,21.1428571 L0,14.8571429 C-1.15946357e-16,13.910369 0.767511857,13.1428571 1.71428571,13.1428571 Z" id="Shape"></path>
                        <path d="M14.8571429,13.1428571 L22.2857143,13.1428571 C23.2324881,13.1428571 24,13.910369 24,14.8571429 L24,21.1428571 C24,22.7208136 22.7208136,24 21.1428571,24 L14.8571429,24 C13.910369,24 13.1428571,23.2324881 13.1428571,22.2857143 L13.1428571,14.8571429 C13.1428571,13.910369 13.910369,13.1428571 14.8571429,13.1428571 Z" id="Shape"></path>
                    </g>
                </g>
            </g>
        </g>
    </g>
</svg>