<?xml version="1.0" encoding="UTF-8"?>
<svg width="86px" height="28px" viewBox="0 0 86 28" version="1.1" xmlns="http://www.w3.org/2000/svg" xmlns:xlink="http://www.w3.org/1999/xlink">
    <!-- Generator: Sketch 47.1 (45422) - http://www.bohemiancoding.com/sketch -->
    <title>logo</title>
    <desc>Created with Sketch.</desc>
    <defs>
        <polygon id="path-1" points="6.39980449e-20 0.0311805405 6.39980449e-20 20.085013 16.0850694 20.085013 16.0850694 0.0311805405"></polygon>
    </defs>
    <g id="Symbols" stroke="none" stroke-width="1" fill="none" fill-rule="evenodd">
        <g id="top-bar---signed" transform="translate(-44.000000, -17.000000)">
            <g id="top-bar">
                <g id="logo" transform="translate(44.000000, 17.000000)">
                    <polygon id="Fill-1" fill="#46B4E8" points="62.1357944 0 50 28 55.8647926 28 68 0"></polygon>
                    <polygon id="Fill-2" fill="#000000" points="42 7 50.0858242 28 56 28 47.9141758 7"></polygon>
                    <g id="Group-10" transform="translate(0.000000, 6.000000)">
                        <g id="Group-5" transform="translate(0.000000, 0.564865)">
                            <mask id="mask-2" fill="white">
                                <use xlink:href="#path-1"></use>
                            </mask>
                            <g id="Clip-4"></g>
                            <path d="M5.75461806,9.12663459 L8.79454861,9.12663459 C9.50347222,9.12663459 10.2413194,8.59001297 10.2413194,6.97958324 C10.2413194,5.31379676 9.35590278,4.83309676 8.64697917,4.83309676 L5.75461806,4.83309676 L5.75461806,9.12663459 Z M-0.00118055556,20.085013 L-0.00118055556,0.0311805405 L9.03125,0.0311805405 C13.1336806,0.0311805405 16.0850694,3.56158595 16.0850694,6.97958324 C16.0850694,10.5387968 13.3107639,13.9279859 9.17881944,13.9279859 L5.75461806,13.9279859 L5.75461806,20.085013 L-0.00118055556,20.085013 Z" id="Fill-3" fill="#000000" mask="url(#mask-2)"></path>
                        </g>
                        <path d="M29.6043785,15.9337081 C32.5262535,15.9337081 33.795941,13.2217919 33.795941,10.5951703 C33.795941,7.88325405 32.4081979,5.37017027 29.5748646,5.37017027 C26.6825035,5.37017027 25.3838924,8.02447027 25.3838924,10.6510919 C25.3838924,13.3347649 26.740941,15.9337081 29.6043785,15.9337081 M19.5395521,10.5951703 C19.5395521,5.28487568 23.7895521,0.483524324 29.6634062,0.483524324 C35.6848299,0.483524324 39.639691,5.59555135 39.639691,10.7081432 C39.639691,15.9619514 35.4481285,20.8197892 29.5453507,20.8197892 C23.553441,20.8197892 19.5395521,15.7636838 19.5395521,10.5951703" id="Fill-6" fill="#000000"></path>
                        <path d="M75.8972778,15.9337081 C78.8191528,15.9337081 80.0888403,13.2217919 80.0888403,10.5951703 C80.0888403,7.88325405 78.7010972,5.37017027 75.8677639,5.37017027 C72.9754028,5.37017027 71.6767917,8.02447027 71.6767917,10.6510919 C71.6767917,13.3347649 73.0338403,15.9337081 75.8972778,15.9337081 M65.8324514,10.5951703 C65.8324514,5.28487568 70.0824514,0.483524324 75.9563056,0.483524324 C81.9777292,0.483524324 85.9325903,5.59555135 85.9325903,10.7081432 C85.9325903,15.9619514 81.7410278,20.8197892 75.83825,20.8197892 C69.8463403,20.8197892 65.8324514,15.7636838 65.8324514,10.5951703" id="Fill-8" fill="#000000"></path>
                    </g>
                </g>
            </g>
        </g>
    </g>
</svg>