<?xml version="1.0" encoding="UTF-8"?>
<svg width="14px" height="20px" viewBox="0 0 14 20" version="1.1" xmlns="http://www.w3.org/2000/svg" xmlns:xlink="http://www.w3.org/1999/xlink">
    <!-- Generator: sketchtool 50.2 (55047) - http://www.bohemiancoding.com/sketch -->
    <title>235E1D89-D8FF-4D30-B5FE-FF7FD3760169@svg</title>
    <desc>Created with sketchtool.</desc>
    <defs></defs>
    <g id="Design" stroke="none" stroke-width="1" fill="none" fill-rule="evenodd">
        <g id="Homepage" transform="translate(-923.000000, -888.000000)" fill="#46B4E8" fill-rule="nonzero">
            <g id="Hero" transform="translate(0.000000, 120.000000)">
                <g id="scroll" transform="translate(923.000000, 768.000000)">
                    <path d="M11.9411765,2.08333333 C9.93950047,0.064807427 6.93471818,-0.53783619 4.32351655,0.5555241 C1.71231491,1.64888439 0.00690589277,4.2237756 -3.55271368e-15,7.08333333 L-3.55271368e-15,12.9166667 C-2.30210994e-15,16.8286836 3.13400675,20 7,20 C10.8659932,20 14,16.8286836 14,12.9166667 L14,7.08333333 C13.9986303,5.20583302 13.2576644,3.40634433 11.9411765,2.08333333 Z M7.82352941,7.91666667 C7.82352941,8.37690396 7.45482274,8.75 7,8.75 C6.54517726,8.75 6.17647059,8.37690396 6.17647059,7.91666667 L6.17647059,4.58333333 C6.17647059,4.12309604 6.54517726,3.75 7,3.75 C7.45482274,3.75 7.82352941,4.12309604 7.82352941,4.58333333 L7.82352941,7.91666667 Z" id="Shape"></path>
                </g>
            </g>
        </g>
    </g>
</svg>