<?xml version="1.0" encoding="UTF-8"?>
<svg width="25px" height="24px" viewBox="0 0 25 24" version="1.1" xmlns="http://www.w3.org/2000/svg" xmlns:xlink="http://www.w3.org/1999/xlink">
    <!-- Generator: sketchtool 50.2 (55047) - http://www.bohemiancoding.com/sketch -->
    <title>12CD78C9-4865-4E42-A545-F94834C296A3@svg</title>
    <desc>Created with sketchtool.</desc>
    <defs></defs>
    <g id="Design" stroke="none" stroke-width="1" fill="none" fill-rule="evenodd">
        <g id="Homepage" transform="translate(-1215.000000, -2394.000000)" fill="#46B4E8" fill-rule="nonzero">
            <g id="How-It-Works" transform="translate(0.000000, 1600.000000)">
                <g id="5" transform="translate(1209.000000, 691.000000)">
                    <g id="shopping" transform="translate(6.000000, 103.000000)">
                        <path d="M23.4418605,3.54857143 L20.2093023,0.72 C19.6771972,0.255957993 18.9904403,-0.000210607106 18.2790698,-8.24737108e-16 L6.13953488,-8.24737108e-16 C5.42816437,-0.000210607106 4.74140746,0.255957993 4.20930233,0.72 L0.976744186,3.57714286 C0.253670708,4.20967333 -0.101625723,5.15445667 0.0290697674,6.09714286 L2.3255814,21.56 C2.53770013,22.9732274 3.7792028,24.0152951 5.23255814,24 L19.1860465,24 C20.6394019,24.0152951 21.8809045,22.9732274 22.0930233,21.56 L24.4186047,6.09714286 C24.5524026,5.13994531 24.1849349,4.18112959 23.4418605,3.54857143 Z M12.2093023,14.8571429 C8.99834448,14.8571429 6.39534884,12.29877 6.39534884,9.14285714 C6.39534884,8.51167457 6.91594797,8 7.55813953,8 C8.2003311,8 8.72093023,8.51167457 8.72093023,9.14285714 C8.72093023,11.0364049 10.2827276,12.5714286 12.2093023,12.5714286 C14.135877,12.5714286 15.6976744,11.0364049 15.6976744,9.14285714 C15.6976744,8.51167457 16.2182735,8 16.8604651,8 C17.5026567,8 18.0232558,8.51167457 18.0232558,9.14285714 C18.0232558,12.29877 15.4202602,14.8571429 12.2093023,14.8571429 Z M3.30232558,4.57142857 L5.75581395,2.42857143 C5.86180479,2.33669844 5.99821372,2.28591416 6.13953488,2.28571429 L18.2790698,2.28571429 C18.4203909,2.28591416 18.5567999,2.33669844 18.6627907,2.42857143 L21.1162791,4.57142857 L3.30232558,4.57142857 Z" id="Shape"></path>
                    </g>
                </g>
            </g>
        </g>
    </g>
</svg>