<?xml version="1.0" encoding="UTF-8"?>
<svg width="179px" height="103px" viewBox="0 0 179 103" version="1.1" xmlns="http://www.w3.org/2000/svg" xmlns:xlink="http://www.w3.org/1999/xlink">
    <!-- Generator: sketchtool 50.2 (55047) - http://www.bohemiancoding.com/sketch -->
    <title>121874FE-D44E-4033-B1CF-82CE29B359FD@svg</title>
    <desc>Created with sketchtool.</desc>
    <defs></defs>
    <g id="Design" stroke="none" stroke-width="1" fill="none" fill-rule="evenodd">
        <g id="Homepage" transform="translate(-76.000000, -1729.000000)">
            <g id="How-It-Works" transform="translate(0.000000, 1600.000000)">
                <g id="wallet-and-coins" transform="translate(72.000000, 124.000000)">
                    <g id="Group-24" transform="translate(93.000000, 5.000000)">
                        <g id="coin" transform="translate(22.000000, 55.000000)">
                            <circle id="Oval-11" fill-opacity="0.5" fill="#000000" style="mix-blend-mode: overlay;" cx="24" cy="27" r="21"></circle>
                            <circle id="Oval-11" fill="#F09A28" cx="22" cy="23" r="21"></circle>
                            <circle id="Oval-11" fill="#FDD659" cx="21" cy="21" r="21"></circle>
                            <circle id="Oval-11" stroke="#F09A28" cx="21" cy="21" r="15"></circle>
                        </g>
                        <g id="coin" transform="translate(0.000000, 49.000000)">
                            <circle id="Oval-11" fill-opacity="0.5" fill="#000000" style="mix-blend-mode: overlay;" cx="24" cy="27" r="21"></circle>
                            <circle id="Oval-11" fill="#F09A28" cx="22" cy="23" r="21"></circle>
                            <circle id="Oval-11" fill="#FDD659" cx="21" cy="21" r="21"></circle>
                            <circle id="Oval-11" stroke="#F09A28" cx="21" cy="21" r="15"></circle>
                        </g>
                        <g id="coin" transform="translate(45.000000, 0.000000)">
                            <circle id="Oval-11" fill-opacity="0.300000012" fill="#000000" style="mix-blend-mode: overlay;" cx="24" cy="27" r="21"></circle>
                            <circle id="Oval-11" fill="#F09A28" cx="22" cy="23" r="21"></circle>
                            <circle id="Oval-11" fill="#FDD659" cx="21" cy="21" r="21"></circle>
                            <circle id="Oval-11" stroke="#F09A28" cx="21" cy="21" r="15"></circle>
                        </g>
                    </g>
                    <g id="wallet" transform="translate(56.895181, 54.272253) rotate(-20.000000) translate(-56.895181, -54.272253) translate(11.895181, 13.570711)">
                        <path d="M87.5229358,56.8285676 L87.5229358,78.4030835 C87.5229358,80.0599378 86.17979,81.4030835 84.5229358,81.4030835 L82.0458716,81.4030835 L8.77981651,81.4030835 C7.12296226,81.4030835 5.77981651,80.0599378 5.77981651,78.4030835 L5.77981651,15.2872579 C5.77981651,13.6304036 7.12296226,12.2872579 8.77981651,12.2872579 L38.1525942,12.2872579 L76.8429938,4.06335957 L78.1673342,10.2938909 L79.8725058,10.1447077 L80.0599547,12.2872579 L82.0458716,12.2872579 C83.7027258,12.2872579 85.0458716,13.6304036 85.0458716,15.2872579 L85.0458716,15.4044913 C86.4534271,15.6519134 87.5229358,16.8805943 87.5229358,18.3590724 L87.5229358,39.1655536 L88.5,39.1655507 C89.3284271,39.1655484 90.0000019,39.8371194 90.0000042,40.6655466 L90,55.3285677 C90,56.1569949 89.3284271,56.8285677 88.5,56.8285677 L87.5229358,56.8285676 Z" id="shadow" fill-opacity="0.5" fill="#000000" style="mix-blend-mode: overlay;"></path>
                        <g>
                            <rect id="Mask" fill="#AE450D" x="0" y="8.4474898" width="79.266055" height="69.1158256" rx="3"></rect>
                            <g id="Group-4" transform="translate(41.697248, 26.878377) rotate(-12.000000) translate(-41.697248, -26.878377) translate(7.431193, 6.911583)">
                                <rect id="Rectangle-12" fill="#DFFFF5" x="0" y="0" width="68.5321101" height="39.9335881"></rect>
                                <rect id="Rectangle-12" fill="#9CEAD1" x="3.30275229" y="3.07181447" width="61.9266055" height="33.7899592"></rect>
                            </g>
                            <g id="Group-4" transform="translate(41.697248, 29.182237) rotate(-5.000000) translate(-41.697248, -29.182237) translate(7.431193, 9.215443)">
                                <rect id="Rectangle-12" fill="#FFFFFF" x="0" y="0" width="68.5321101" height="39.9335881"></rect>
                                <rect id="Rectangle-12" fill="#9CEAD1" x="3.30275229" y="3.07181447" width="61.9266055" height="33.7899592"></rect>
                            </g>
                            <path d="M0,11.5193043 L78.7431193,11.5193043 C80.3999735,11.5193043 81.7431193,12.86245 81.7431193,14.5193043 L81.7431193,74.5633154 C81.7431193,76.2201697 80.3999735,77.5633154 78.7431193,77.5633154 L3,77.5633154 C1.34314575,77.5633154 2.02906125e-16,76.2201697 0,74.5633154 L0,11.5193043 Z" id="Rectangle-13" fill="#E97C42"></path>
                            <path d="M2.36231349,13.8476059 C46.6485032,13.8476059 71.3921237,13.8476059 76.5931751,13.8476059 C78.8480398,13.8476059 79.9284078,14.8560561 79.8342792,16.8729566 L79.8342792,72.0638227 C79.6116104,74.2032509 78.5312423,75.272965 76.5931751,75.272965 C68.7024058,75.272965 44.2221794,75.272965 3.15249599,75.272965" id="Path-90" stroke="#F6A479" stroke-width="0.75" stroke-dasharray="2.25,2.25,2.25,2.25"></path>
                            <path d="M54.5141814,35.3258649 L82.7201835,35.3257826 C83.5486106,35.3257803 84.2201853,35.9973513 84.2201876,36.8257785 C84.2201876,36.8257798 84.2201876,36.8257812 84.2201876,36.8257826 L84.2201835,51.4887997 C84.2201835,52.3172268 83.5486106,52.9887997 82.7201835,52.9887997 L54.4789177,52.9887948 C54.142107,52.9887948 53.8150973,52.8754392 53.5505469,52.6669817 C48.5211069,48.7039394 46.006387,45.95946 46.006387,44.4335435 C46.006387,42.9089318 48.5168078,39.9935016 53.5376494,35.6872527 L53.5376667,35.6872729 C53.8095741,35.4540648 54.1559641,35.3258659 54.5141814,35.3258649 Z" id="Rectangle-22" fill="#AE450D"></path>
                            <path d="M56.0800236,37.6297261 L80.2431193,37.6296653 C81.0715464,37.6296634 81.7431209,38.3012347 81.7431228,39.1296618 C81.7431228,39.129663 81.7431228,39.1296642 81.7431228,39.1296653 L81.7431193,49.1849361 C81.7431193,50.0133633 81.0715464,50.6849361 80.2431193,50.6849361 L56.047117,50.6849377 C55.7482474,50.6849377 55.4561911,50.5956574 55.2084062,50.4285474 C50.8798663,47.5093128 48.7155963,45.4869594 48.7155963,44.3614872 C48.7155963,43.2374068 50.8745167,41.0904439 55.1923574,37.9205985 L55.1923445,37.9205809 C55.4497386,37.7316208 55.7607155,37.6297269 56.0800236,37.6297261 Z" id="Rectangle-22" stroke="#D76B31" stroke-width="0.75" stroke-dasharray="2.25,2.25,2.25,2.25"></path>
                            <ellipse id="Oval-5" fill="#FFB086" cx="58.2110092" cy="44.157333" rx="3.71559633" ry="3.45579128"></ellipse>
                        </g>
                    </g>
                </g>
            </g>
        </g>
    </g>
</svg>